<svg width="440" height="186" viewBox="0 0 440 186" fill="none" xmlns="http://www.w3.org/2000/svg">
<path fill-rule="evenodd" clip-rule="evenodd" d="M103.895 104.805C103.464 104.805 102.994 105.145 102.48 105.815C98.2856 110.917 94.1737 113.466 90.1503 113.466C86.2927 113.466 83.0375 111.879 80.3847 108.698C76.9581 104.519 75.2448 97.5694 75.2448 87.866C75.2448 70.8785 79.1412 62.3847 86.9338 62.3847C88.7355 62.3847 90.2553 62.9463 91.4988 64.0748C92.7368 65.2034 93.3613 66.5641 93.3613 68.1516C93.3613 68.7402 93.0794 69.723 92.5268 71.1053C91.9686 72.4822 91.6867 73.681 91.6867 74.6799C91.6867 78.6163 93.9582 80.5818 98.4956 80.5818C100.38 80.5818 101.922 79.9554 103.127 78.6973C104.321 77.4446 104.923 75.8138 104.923 73.8052C104.923 70.2089 103.061 67.1527 99.3356 64.6418C95.6107 62.1309 91.0456 60.8728 85.6516 60.8728C77.2566 60.8728 70.1879 63.7455 64.4512 69.4746C58.7145 75.2091 55.8462 82.2557 55.8462 90.6253C55.8462 98.3253 58.5653 104.87 64.0036 110.27C69.4418 115.669 76.013 118.364 83.7228 118.364C89.9734 118.364 95.3288 116.317 99.7833 112.213C102.867 109.373 104.409 107.154 104.409 105.561C104.409 105.059 104.238 104.805 103.895 104.805Z" fill="#FFA5C9"/>
<mask id="mask0_79_2" style="mask-type:alpha" maskUnits="userSpaceOnUse" x="174" y="47" width="36" height="92">
<path d="M174.308 47.3455H209.846V138.655H174.308V47.3455Z" fill="#FFA5C9"/>
</mask>
<g mask="url(#mask0_79_2)">
<path fill-rule="evenodd" clip-rule="evenodd" d="M208.191 136.697H204.371C202.585 136.78 201.544 136.329 201.248 135.338C200.952 134.346 200.804 130.915 200.804 125.043V47.3455C194.803 49.9358 187.071 51.4064 177.601 51.7462C175.404 51.8409 174.308 52.2531 174.308 52.9884C174.308 53.629 175.382 53.9521 177.535 53.9521C180.462 53.9521 182.226 54.2306 182.829 54.7877C183.432 55.3503 183.733 57.0939 183.733 60.024V128.168C183.733 132.647 183.498 135.237 183.032 135.923C182.566 136.613 180.845 136.914 177.875 136.831C175.919 136.741 174.943 137.048 174.943 137.733C174.943 138.424 175.869 138.725 177.733 138.641L181.541 138.513C186.621 138.34 190.09 138.251 191.954 138.251C193.899 138.251 195.883 138.296 197.916 138.379C201.894 138.552 204.262 138.641 205.024 138.641C208.24 138.641 209.846 138.318 209.846 137.672C209.846 137.02 209.298 136.697 208.191 136.697Z" fill="#FFA5C9"/>
</g>
<path fill-rule="evenodd" clip-rule="evenodd" d="M249.16 47.0399C251.769 47.0399 253.589 48.2899 254.626 50.7846C255.667 53.2846 256.143 57.7382 256.065 64.1508H240.048C240.826 52.7435 243.868 47.0399 249.16 47.0399ZM271.941 85.4068C271.509 85.4068 270.944 86.2023 270.256 87.7987C268.772 90.986 266.626 93.5835 263.804 95.5965C260.987 97.6096 258.059 98.6161 255.018 98.6161C251.371 98.6161 248.297 97.4039 245.777 94.9796C241.526 90.8886 239.398 83.9566 239.398 74.1781C239.398 72.0947 239.528 69.546 239.785 66.5372C243.083 66.3695 245.816 66.2883 247.995 66.2883C262.051 66.1746 270.071 66.0069 272.076 65.7796C271.902 63.6908 271.639 61.8834 271.292 60.3736C269.992 55.5087 267.169 51.7803 262.829 49.1774C258.926 46.8288 254.194 45.6545 248.645 45.6545C240.485 45.6545 233.67 48.4035 228.204 53.8961C222.733 59.3887 220 66.245 220 74.4595C220 82.8526 222.822 89.7305 228.462 95.0933C234.101 100.461 241.308 103.145 250.073 103.145C257.885 103.145 264.219 99.9202 269.079 93.459C271.336 90.4394 272.462 88.0097 272.462 86.1644C272.462 85.6612 272.288 85.4068 271.941 85.4068Z" fill="#FFA5C9"/>
<path fill-rule="evenodd" clip-rule="evenodd" d="M129.778 42.1671C129.699 35.7552 130.175 31.302 131.217 28.8076C132.253 26.3077 134.073 25.0578 136.683 25.0578C141.982 25.0578 145.017 30.7609 145.796 42.1671H129.778ZM157.641 31.9134C152.175 26.4268 145.364 23.6726 137.204 23.6726C131.648 23.6726 126.921 24.8522 123.012 27.1951C118.672 29.7978 115.849 33.5313 114.549 38.3903C114.202 39.8999 113.945 41.7072 113.771 43.7958C115.77 44.0284 123.791 44.1962 137.848 44.3098C140.027 44.3098 142.76 44.391 146.059 44.5533C146.317 47.5618 146.451 50.1103 146.451 52.1989C146.451 61.971 144.323 68.9078 140.066 72.9985C137.551 75.4225 134.471 76.6346 130.825 76.6346C127.784 76.6346 124.855 75.6227 122.038 73.6153C119.215 71.597 117.07 68.9998 115.591 65.8128C114.897 64.222 114.331 63.4266 113.9 63.4266C113.553 63.4266 113.385 63.6755 113.385 64.1787C113.385 66.0238 114.51 68.4533 116.767 71.4726C121.629 77.9332 127.957 81.1635 135.776 81.1635C144.541 81.1635 151.744 78.4743 157.389 73.1067C163.029 67.7445 165.846 60.8672 165.846 52.4803C165.846 44.2665 163.113 37.4109 157.641 31.9134Z" fill="#FFA5C9"/>
<path fill-rule="evenodd" clip-rule="evenodd" d="M332.304 73.7301C330.448 71.9295 328.058 71.0181 325.13 71.0181C322.029 71.0181 319.512 71.8739 317.572 73.5745C315.639 75.2806 313.849 78.2204 312.216 82.3884V76.9644C312.216 74.7248 311.998 72.7464 311.565 71.0181C303.902 73.7801 296.755 75.1527 290.126 75.1527H285.347C284.652 75.1527 284.308 75.3973 284.308 75.8808C284.308 76.3642 284.463 76.6477 284.763 76.7255C285.063 76.8088 286.336 76.9311 288.576 77.0923C291.415 77.3535 293.243 78.037 294.061 79.1596C294.883 80.2711 295.289 82.294 295.289 85.2116L295.422 120.001C295.422 123.185 295.056 125.091 294.321 125.736C293.588 126.381 291.46 126.747 287.931 126.831C286.72 126.831 286.12 127.114 286.12 127.67C286.12 128.231 286.592 128.509 287.542 128.509H301.752H307.603H321.385C322.162 128.509 322.546 128.164 322.546 127.481C322.546 126.958 322.073 126.658 321.129 126.569C319.234 126.569 317.594 126.531 316.217 126.442C313.893 126.269 312.732 125.03 312.732 122.707V101.961C312.732 91.9082 313.154 85.595 314.004 83.0164C315.533 78.4649 317.745 76.1864 320.634 76.1864C321.74 76.1864 322.29 76.5754 322.29 77.3535C322.29 77.6091 322.162 77.9148 321.901 78.2537C320.779 79.7209 320.223 81.1825 320.223 82.6441C320.223 86.9566 322.546 89.1073 327.197 89.1073C329.525 89.1073 331.42 88.3126 332.882 86.7176C334.343 85.1282 335.077 83.0775 335.077 80.5767C335.077 77.8258 334.149 75.5418 332.304 73.7301Z" fill="#FFA5C9"/>
<path fill-rule="evenodd" clip-rule="evenodd" d="M371.992 70.6875C370.749 75.3745 368.177 77.7125 364.282 77.7125C361.134 77.7125 358.687 75.8712 356.948 72.1886C354.796 67.5934 353.714 59.807 353.714 48.8456C353.714 40.9782 354.629 34.8063 356.448 30.3299C358.278 25.8535 360.801 23.6127 364.035 23.6127C367.511 23.6127 370.039 25.7455 371.616 30.0167C373.026 33.8667 373.73 40.9782 373.73 51.3565C373.73 59.807 373.149 66.2489 371.992 70.6875ZM384.297 30.5783C378.75 24.8492 372.105 21.9819 364.346 21.9819C356.26 21.9819 349.362 24.806 343.647 30.4541C337.939 36.1022 335.077 42.9437 335.077 50.9785C335.077 58.6785 337.939 65.3472 343.647 71.0007C349.362 76.6488 356.136 79.4728 363.976 79.4728C370.561 79.4728 376.608 77.2968 382.108 72.9446C389.118 67.4207 392.615 60.185 392.615 51.2323C392.615 43.1975 389.845 36.3128 384.297 30.5783Z" fill="#FFA5C9"/>
<path fill-rule="evenodd" clip-rule="evenodd" d="M48.1802 49.1033C45.326 45.9602 41.1454 43.429 35.6385 41.4986L22.6378 37.0926C20.0858 36.1803 18.0487 35.2457 16.5209 34.2777C14.9874 33.3153 13.8681 32.3529 13.1518 31.3904C12.441 30.428 11.9821 29.4879 11.775 28.5755C11.5736 27.6632 11.4728 26.8565 11.4728 26.1444C11.4728 22.7009 12.8719 20.0918 15.6758 18.3172C18.4796 16.5425 21.5689 15.6524 24.9324 15.6524C28.0888 15.6524 30.7415 16.1364 32.885 17.0988C35.0285 18.0613 36.8361 19.3797 38.3136 21.0542C39.7911 22.7231 41.0671 24.6758 42.136 26.9066C43.2105 29.1374 44.2515 31.4683 45.2756 33.8994H47.2624V15.352H45.1189C44.9175 15.8583 44.66 16.3145 44.3578 16.7206C44.05 17.1267 43.3337 17.3269 42.2144 17.3269C41.6043 17.3269 40.7593 17.1267 39.6903 16.7206C38.6214 16.3145 37.3958 15.8805 36.019 15.4244C34.6423 14.9682 33.1145 14.5398 31.4299 14.1337C29.751 13.7276 27.9377 13.5273 26.0013 13.5273C22.33 13.5273 18.9385 14.1115 15.8325 15.2742C12.7208 16.4424 10.0681 18.0112 7.87986 19.9861C5.68604 21.9666 3.97911 24.2697 2.75348 26.9066C1.52784 29.5435 0.917825 32.3306 0.917825 35.2679C0.917825 38.005 1.37674 40.3581 2.29456 42.3386C3.21239 44.3135 4.35967 46.0102 5.73641 47.4288C7.11314 48.853 8.613 49.9934 10.2472 50.8501C11.8758 51.7124 13.4092 52.3967 14.8363 52.9029L27.2269 57.4647C29.9804 58.4771 32.1463 59.4674 33.7245 60.4298C35.3083 61.3922 36.5059 62.3824 37.323 63.3949C38.1345 64.4074 38.6718 65.3976 38.9292 66.36C39.1811 67.3225 39.3098 68.2571 39.3098 69.1694C39.3098 72.1123 38.7725 74.3653 37.7036 75.9397C36.6347 77.5085 35.3587 78.6767 33.8812 79.4333C32.3981 80.1955 30.8982 80.6294 29.3648 80.7295C27.837 80.8297 26.6113 80.8797 25.6935 80.8797C22.1229 80.8797 19.1176 80.2455 16.672 78.9771C14.2263 77.7143 12.1332 76.0676 10.3983 74.0371C8.66337 72.0121 7.16351 69.6812 5.88751 67.0443C4.61151 64.4074 3.36349 61.6704 2.14346 58.8332H0V80.8797H2.14346C2.44567 80.0675 2.77586 79.5112 3.13404 79.2052C3.49221 78.9048 4.07984 78.7491 4.89693 78.7491C5.81476 78.7491 7.08516 78.9549 8.71934 79.361C10.3479 79.7671 12.1612 80.2455 14.1479 80.8018C16.1347 81.3581 18.1998 81.8421 20.3433 82.2482C22.4867 82.6488 24.4735 82.8546 26.3091 82.8546C29.6726 82.8546 32.9354 82.3484 36.0974 81.3359C39.2538 80.3234 42.0353 78.877 44.4306 77.0022C46.8259 75.1275 48.7679 72.8466 50.2453 70.1596C51.7228 67.4782 52.4615 64.4575 52.4615 61.114C52.4615 56.2463 51.0344 52.2465 48.1802 49.1033Z" fill="#FFA5C9"/>
<mask id="mask1_79_2" style="mask-type:alpha" maskUnits="userSpaceOnUse" x="377" y="0" width="63" height="131">
<path d="M377.385 0H440V130.2H377.385V0Z" fill="#FFA5C9"/>
</mask>
<g mask="url(#mask1_79_2)">
<path fill-rule="evenodd" clip-rule="evenodd" d="M396.401 116.313C395.304 113.818 393.48 112.069 390.931 111.073C388.376 110.077 385.848 110.127 383.348 111.217C380.843 112.313 379.097 114.133 378.099 116.678C377.102 119.229 377.147 121.752 378.243 124.248C379.335 126.743 381.159 128.492 383.714 129.488C386.264 130.484 388.792 130.434 391.296 129.344C393.797 128.254 395.548 126.434 396.546 123.883C397.543 121.337 397.494 118.814 396.401 116.313ZM439.335 5.48084C438.437 3.32838 436.713 1.75139 434.164 0.755391C431.609 -0.240606 429.275 -0.251673 427.152 0.722191C425.029 1.69605 423.516 3.34498 422.612 5.65791C422.429 6.12271 422.136 7.04677 421.731 8.41903C421.321 9.79683 420.861 11.3185 420.34 12.984C419.819 14.6551 419.298 16.3206 418.783 17.9861C418.261 19.6517 417.857 21.0295 417.564 22.1195L394.844 95.9727L398.319 97.3339L431.836 27.6916C432.356 26.6956 432.994 25.4118 433.748 23.8293C434.496 22.2579 435.25 20.6809 436.003 19.1039C436.752 17.5269 437.451 16.0993 438.087 14.81C438.725 13.5263 439.136 12.6465 439.318 12.1817C440.222 9.86876 440.227 7.6333 439.335 5.48084Z" fill="#FFA5C9"/>
</g>
<path d="M25.7822 159.188C25.7822 159.709 26.0036 160.158 26.4463 160.536C26.889 160.9 27.501 161.083 28.2822 161.083C29.2588 161.083 30.0921 160.77 30.7822 160.145C31.4854 159.507 31.8369 158.7 31.8369 157.723V156.102C31.251 156.285 30.2744 156.48 28.9072 156.688C27.8135 156.871 27.0192 157.163 26.5244 157.567C26.0296 157.971 25.7822 158.511 25.7822 159.188ZM24.5713 159.266C24.5713 158.329 24.9163 157.574 25.6064 157.001C26.3096 156.415 27.4163 156.005 28.9268 155.77C30.4372 155.523 31.4072 155.315 31.8369 155.145V154.559C31.8369 153.843 31.583 153.257 31.0752 152.802C30.5804 152.333 29.8773 152.098 28.9658 152.098C28.3408 152.098 27.7354 152.248 27.1494 152.548C26.5765 152.834 26.0947 153.225 25.7041 153.719L24.9229 153.094C25.3916 152.509 25.9775 152.033 26.6807 151.669C27.3838 151.304 28.139 151.122 28.9463 151.122C30.3656 151.122 31.3942 151.473 32.0322 152.177C32.6833 152.88 33.0088 153.824 33.0088 155.009V161.727H31.8564V159.872C31.6351 160.458 31.1794 160.972 30.4893 161.415C29.8122 161.858 29.0244 162.079 28.126 162.079C27.0192 162.079 26.1468 161.818 25.5088 161.298C24.8838 160.764 24.5713 160.087 24.5713 159.266ZM36.2119 161.727V151.473H37.3643V153.094C37.5596 152.6 37.9046 152.15 38.3994 151.747C38.8942 151.33 39.5322 151.122 40.3135 151.122C40.9124 151.122 41.4072 151.213 41.7979 151.395V152.489C41.29 152.294 40.7952 152.196 40.3135 152.196C39.415 152.196 38.7054 152.535 38.1846 153.212C37.6768 153.889 37.4229 154.768 37.4229 155.848V161.727H36.2119ZM42.5205 152.469V151.473H44.3955V148.094H45.6064V151.473H48.3408V152.469H45.6064V158.817C45.6064 159.494 45.7367 159.983 45.9971 160.282C46.2575 160.581 46.6807 160.725 47.2666 160.712L48.3408 160.692V161.727H47.1104C46.238 161.74 45.5674 161.519 45.0986 161.063C44.6299 160.608 44.3955 159.898 44.3955 158.934V152.469H42.5205ZM49.8252 159.813L50.7432 159.286C51.5114 160.484 52.5596 161.083 53.8877 161.083C54.708 161.083 55.3721 160.92 55.8799 160.594C56.3877 160.269 56.6416 159.82 56.6416 159.247C56.6416 158.986 56.5765 158.759 56.4463 158.563C56.3291 158.355 56.1989 158.186 56.0557 158.055C55.9124 157.912 55.6585 157.769 55.2939 157.626C54.9424 157.469 54.6559 157.359 54.4346 157.294C54.2262 157.216 53.8617 157.098 53.3408 156.942C52.8851 156.799 52.4945 156.662 52.1689 156.532C51.8564 156.389 51.5244 156.2 51.1729 155.966C50.8343 155.731 50.5739 155.445 50.3916 155.106C50.2093 154.768 50.1182 154.377 50.1182 153.934C50.1182 153.088 50.4567 152.411 51.1338 151.903C51.8239 151.382 52.7419 151.122 53.8877 151.122C54.708 151.122 55.4567 151.337 56.1338 151.766C56.8109 152.183 57.2992 152.684 57.5986 153.27L56.7783 153.798C56.5049 153.329 56.1077 152.932 55.5869 152.606C55.0791 152.281 54.5127 152.118 53.8877 152.118C53.0674 152.118 52.4294 152.287 51.9736 152.626C51.5309 152.951 51.3096 153.394 51.3096 153.954C51.3096 154.371 51.4658 154.735 51.7783 155.048C52.0908 155.36 52.4229 155.594 52.7744 155.751C53.139 155.894 53.6077 156.05 54.1807 156.219C54.6885 156.363 55.1182 156.506 55.4697 156.649C55.8213 156.779 56.1989 156.968 56.6025 157.216C57.0062 157.45 57.3122 157.743 57.5205 158.094C57.7419 158.433 57.8525 158.817 57.8525 159.247C57.8525 160.054 57.501 160.731 56.7979 161.278C56.1077 161.812 55.1377 162.079 53.8877 162.079C53.0023 162.079 52.208 161.884 51.5049 161.493C50.8018 161.089 50.2419 160.529 49.8252 159.813ZM65.5869 159.188C65.5869 159.709 65.8083 160.158 66.251 160.536C66.6937 160.9 67.3057 161.083 68.0869 161.083C69.0635 161.083 69.8968 160.77 70.5869 160.145C71.29 159.507 71.6416 158.7 71.6416 157.723V156.102C71.0557 156.285 70.0791 156.48 68.7119 156.688C67.6182 156.871 66.8239 157.163 66.3291 157.567C65.8343 157.971 65.5869 158.511 65.5869 159.188ZM64.376 159.266C64.376 158.329 64.721 157.574 65.4111 157.001C66.1143 156.415 67.221 156.005 68.7314 155.77C70.2419 155.523 71.2119 155.315 71.6416 155.145V154.559C71.6416 153.843 71.3877 153.257 70.8799 152.802C70.3851 152.333 69.682 152.098 68.7705 152.098C68.1455 152.098 67.54 152.248 66.9541 152.548C66.3812 152.834 65.8994 153.225 65.5088 153.719L64.7275 153.094C65.1963 152.509 65.7822 152.033 66.4854 151.669C67.1885 151.304 67.9437 151.122 68.751 151.122C70.1702 151.122 71.1989 151.473 71.8369 152.177C72.488 152.88 72.8135 153.824 72.8135 155.009V161.727H71.6611V159.872C71.4398 160.458 70.984 160.972 70.2939 161.415C69.6169 161.858 68.8291 162.079 67.9307 162.079C66.8239 162.079 65.9515 161.818 65.3135 161.298C64.6885 160.764 64.376 160.087 64.376 159.266ZM76.0166 161.727V151.473H77.1885V153.407H77.208C77.3512 152.886 77.7354 152.378 78.3604 151.884C78.9984 151.376 79.7601 151.122 80.6455 151.122C81.57 151.122 82.3447 151.421 82.9697 152.02C83.5947 152.606 83.9072 153.628 83.9072 155.087V161.727H82.6963V155.302C82.6963 153.179 81.9215 152.118 80.3721 152.118C79.5387 152.118 78.8031 152.456 78.165 153.134C77.54 153.811 77.2275 154.611 77.2275 155.536V161.727H76.0166ZM86.3877 156.571C86.3877 154.878 86.7848 153.55 87.5791 152.587C88.3864 151.61 89.415 151.122 90.665 151.122C91.4593 151.122 92.1429 151.363 92.7158 151.844C93.3018 152.326 93.7119 152.893 93.9463 153.544V146.805H95.1182V161.727H93.9854V159.677C93.7249 160.367 93.3018 160.94 92.7158 161.395C92.1429 161.851 91.4593 162.079 90.665 162.079C89.5322 162.079 88.5361 161.617 87.6768 160.692C86.8174 159.768 86.3877 158.394 86.3877 156.571ZM87.5986 156.571C87.5986 157.938 87.8916 159.032 88.4775 159.852C89.0765 160.673 89.8577 161.083 90.8213 161.083C91.7067 161.083 92.4554 160.679 93.0674 159.872C93.6794 159.065 93.9854 157.964 93.9854 156.571C93.9854 155.204 93.6729 154.123 93.0479 153.329C92.4229 152.522 91.6742 152.118 90.8018 152.118C89.8512 152.118 89.0765 152.522 88.4775 153.329C87.8916 154.136 87.5986 155.217 87.5986 156.571ZM103.634 161.727V146.805H104.806V161.727H103.634ZM108.497 148.954V147.157H110.196V148.954H108.497ZM108.771 161.727V151.473H109.962V161.727H108.771ZM112.462 152.469V151.473H114.337V148.094H115.548V151.473H118.282V152.469H115.548V158.817C115.548 159.494 115.678 159.983 115.938 160.282C116.199 160.581 116.622 160.725 117.208 160.712L118.282 160.692V161.727H117.052C116.179 161.74 115.509 161.519 115.04 161.063C114.571 160.608 114.337 159.898 114.337 158.934V152.469H112.462ZM119.923 156.532C119.923 154.93 120.346 153.628 121.192 152.626C122.039 151.623 123.146 151.122 124.513 151.122C125.893 151.122 126.98 151.617 127.774 152.606C128.569 153.583 128.966 154.807 128.966 156.278C128.966 156.434 128.953 156.669 128.927 156.981H121.134C121.134 158.101 121.433 159.065 122.032 159.872C122.644 160.679 123.491 161.083 124.571 161.083C125.261 161.083 125.88 160.913 126.427 160.575C126.987 160.236 127.41 159.794 127.696 159.247L128.712 159.579C128.373 160.308 127.853 160.907 127.149 161.376C126.446 161.844 125.587 162.079 124.571 162.079C123.165 162.079 122.039 161.571 121.192 160.555C120.346 159.527 119.923 158.186 119.923 156.532ZM121.153 156.063H127.755C127.755 154.969 127.462 154.038 126.876 153.27C126.29 152.502 125.502 152.118 124.513 152.118C123.497 152.118 122.69 152.515 122.091 153.309C121.492 154.091 121.179 155.009 121.153 156.063ZM131.505 161.727V151.473H132.657V153.094C132.853 152.6 133.198 152.15 133.692 151.747C134.187 151.33 134.825 151.122 135.606 151.122C136.205 151.122 136.7 151.213 137.091 151.395V152.489C136.583 152.294 136.088 152.196 135.606 152.196C134.708 152.196 133.998 152.535 133.478 153.212C132.97 153.889 132.716 154.768 132.716 155.848V161.727H131.505ZM139.024 159.188C139.024 159.709 139.246 160.158 139.688 160.536C140.131 160.9 140.743 161.083 141.524 161.083C142.501 161.083 143.334 160.77 144.024 160.145C144.728 159.507 145.079 158.7 145.079 157.723V156.102C144.493 156.285 143.517 156.48 142.149 156.688C141.056 156.871 140.261 157.163 139.767 157.567C139.272 157.971 139.024 158.511 139.024 159.188ZM137.813 159.266C137.813 158.329 138.159 157.574 138.849 157.001C139.552 156.415 140.659 156.005 142.169 155.77C143.679 155.523 144.649 155.315 145.079 155.145V154.559C145.079 153.843 144.825 153.257 144.317 152.802C143.823 152.333 143.119 152.098 142.208 152.098C141.583 152.098 140.978 152.248 140.392 152.548C139.819 152.834 139.337 153.225 138.946 153.719L138.165 153.094C138.634 152.509 139.22 152.033 139.923 151.669C140.626 151.304 141.381 151.122 142.188 151.122C143.608 151.122 144.636 151.473 145.274 152.177C145.925 152.88 146.251 153.824 146.251 155.009V161.727H145.099V159.872C144.877 160.458 144.422 160.972 143.731 161.415C143.054 161.858 142.267 162.079 141.368 162.079C140.261 162.079 139.389 161.818 138.751 161.298C138.126 160.764 137.813 160.087 137.813 159.266ZM149.454 161.727V151.473H150.606V153.094C150.802 152.6 151.147 152.15 151.642 151.747C152.136 151.33 152.774 151.122 153.556 151.122C154.155 151.122 154.649 151.213 155.04 151.395V152.489C154.532 152.294 154.037 152.196 153.556 152.196C152.657 152.196 151.948 152.535 151.427 153.212C150.919 153.889 150.665 154.768 150.665 155.848V161.727H149.454ZM155.724 151.473H157.11L159.415 157.938C159.715 158.785 160.007 159.644 160.294 160.516H160.353C160.457 160.191 160.606 159.735 160.802 159.149C161.01 158.563 161.153 158.153 161.231 157.919L163.438 151.473H164.806L160.353 163.583C159.988 164.585 159.565 165.288 159.083 165.692C158.601 166.109 158.028 166.317 157.364 166.317H156.817V165.321H157.169C157.638 165.321 158.048 165.165 158.399 164.852C158.751 164.553 159.057 164.019 159.317 163.251L159.728 162.001L155.724 151.473ZM171.524 161.727V151.473H172.696V153.153H172.716C172.898 152.645 173.25 152.183 173.771 151.766C174.291 151.337 174.949 151.122 175.743 151.122C177.11 151.122 178.009 151.936 178.438 153.563C178.491 153.394 178.582 153.192 178.712 152.958C178.855 152.723 179.057 152.463 179.317 152.177C179.578 151.877 179.929 151.63 180.372 151.434C180.828 151.226 181.323 151.122 181.856 151.122C182.885 151.122 183.627 151.46 184.083 152.137C184.539 152.815 184.767 153.798 184.767 155.087V161.727H183.575V155.204C183.575 154.188 183.432 153.42 183.146 152.899C182.872 152.378 182.345 152.118 181.563 152.118C180.782 152.118 180.118 152.443 179.571 153.094C179.024 153.746 178.751 154.579 178.751 155.594V161.727H177.56V155.204C177.56 153.147 176.876 152.118 175.509 152.118C174.675 152.118 174.005 152.437 173.497 153.075C172.989 153.7 172.735 154.507 172.735 155.497V161.727H171.524ZM188.399 159.188C188.399 159.709 188.621 160.158 189.063 160.536C189.506 160.9 190.118 161.083 190.899 161.083C191.876 161.083 192.709 160.77 193.399 160.145C194.103 159.507 194.454 158.7 194.454 157.723V156.102C193.868 156.285 192.892 156.48 191.524 156.688C190.431 156.871 189.636 157.163 189.142 157.567C188.647 157.971 188.399 158.511 188.399 159.188ZM187.188 159.266C187.188 158.329 187.534 157.574 188.224 157.001C188.927 156.415 190.034 156.005 191.544 155.77C193.054 155.523 194.024 155.315 194.454 155.145V154.559C194.454 153.843 194.2 153.257 193.692 152.802C193.198 152.333 192.494 152.098 191.583 152.098C190.958 152.098 190.353 152.248 189.767 152.548C189.194 152.834 188.712 153.225 188.321 153.719L187.54 153.094C188.009 152.509 188.595 152.033 189.298 151.669C190.001 151.304 190.756 151.122 191.563 151.122C192.983 151.122 194.011 151.473 194.649 152.177C195.3 152.88 195.626 153.824 195.626 155.009V161.727H194.474V159.872C194.252 160.458 193.797 160.972 193.106 161.415C192.429 161.858 191.642 162.079 190.743 162.079C189.636 162.079 188.764 161.818 188.126 161.298C187.501 160.764 187.188 160.087 187.188 159.266ZM199.317 156.415C199.317 157.691 199.604 158.726 200.177 159.52C200.75 160.302 201.498 160.692 202.423 160.692C203.373 160.692 204.122 160.315 204.669 159.559C205.216 158.791 205.489 157.73 205.489 156.376C205.489 155.074 205.209 154.038 204.649 153.27C204.09 152.502 203.36 152.118 202.462 152.118C201.498 152.118 200.73 152.522 200.157 153.329C199.597 154.136 199.317 155.165 199.317 156.415ZM198.106 156.415C198.106 154.826 198.491 153.55 199.259 152.587C200.027 151.61 201.043 151.122 202.306 151.122C203.139 151.122 203.816 151.35 204.337 151.805C204.871 152.261 205.255 152.788 205.489 153.387V151.473H206.661V160.673C206.661 162.6 206.323 164.032 205.646 164.969C204.981 165.92 203.907 166.395 202.423 166.395C200.821 166.395 199.584 165.796 198.712 164.598L199.571 164.032C200.392 164.956 201.349 165.419 202.442 165.419C203.458 165.419 204.22 165.041 204.728 164.286C205.235 163.531 205.489 162.489 205.489 161.161V159.501C205.229 160.139 204.832 160.666 204.298 161.083C203.777 161.499 203.126 161.708 202.345 161.708C201.056 161.708 200.027 161.213 199.259 160.223C198.491 159.234 198.106 157.964 198.106 156.415ZM210.47 159.188C210.47 159.709 210.691 160.158 211.134 160.536C211.576 160.9 212.188 161.083 212.97 161.083C213.946 161.083 214.78 160.77 215.47 160.145C216.173 159.507 216.524 158.7 216.524 157.723V156.102C215.938 156.285 214.962 156.48 213.595 156.688C212.501 156.871 211.707 157.163 211.212 157.567C210.717 157.971 210.47 158.511 210.47 159.188ZM209.259 159.266C209.259 158.329 209.604 157.574 210.294 157.001C210.997 156.415 212.104 156.005 213.614 155.77C215.125 155.523 216.095 155.315 216.524 155.145V154.559C216.524 153.843 216.271 153.257 215.763 152.802C215.268 152.333 214.565 152.098 213.653 152.098C213.028 152.098 212.423 152.248 211.837 152.548C211.264 152.834 210.782 153.225 210.392 153.719L209.61 153.094C210.079 152.509 210.665 152.033 211.368 151.669C212.071 151.304 212.826 151.122 213.634 151.122C215.053 151.122 216.082 151.473 216.72 152.177C217.371 152.88 217.696 153.824 217.696 155.009V161.727H216.544V159.872C216.323 160.458 215.867 160.972 215.177 161.415C214.5 161.858 213.712 162.079 212.813 162.079C211.707 162.079 210.834 161.818 210.196 161.298C209.571 160.764 209.259 160.087 209.259 159.266ZM219.942 161.727V160.907L226.134 152.469H220.47V151.473H227.677V152.255L221.446 160.712H227.853V161.727H219.942ZM230.353 148.954V147.157H232.052V148.954H230.353ZM230.626 161.727V151.473H231.817V161.727H230.626ZM235.528 161.727V151.473H236.7V153.407H236.72C236.863 152.886 237.247 152.378 237.872 151.884C238.51 151.376 239.272 151.122 240.157 151.122C241.082 151.122 241.856 151.421 242.481 152.02C243.106 152.606 243.419 153.628 243.419 155.087V161.727H242.208V155.302C242.208 153.179 241.433 152.118 239.884 152.118C239.05 152.118 238.315 152.456 237.677 153.134C237.052 153.811 236.739 154.611 236.739 155.536V161.727H235.528ZM245.899 156.532C245.899 154.93 246.323 153.628 247.169 152.626C248.015 151.623 249.122 151.122 250.489 151.122C251.869 151.122 252.957 151.617 253.751 152.606C254.545 153.583 254.942 154.807 254.942 156.278C254.942 156.434 254.929 156.669 254.903 156.981H247.11C247.11 158.101 247.41 159.065 248.009 159.872C248.621 160.679 249.467 161.083 250.548 161.083C251.238 161.083 251.856 160.913 252.403 160.575C252.963 160.236 253.386 159.794 253.673 159.247L254.688 159.579C254.35 160.308 253.829 160.907 253.126 161.376C252.423 161.844 251.563 162.079 250.548 162.079C249.142 162.079 248.015 161.571 247.169 160.555C246.323 159.527 245.899 158.186 245.899 156.532ZM247.13 156.063H253.731C253.731 154.969 253.438 154.038 252.853 153.27C252.267 152.502 251.479 152.118 250.489 152.118C249.474 152.118 248.666 152.515 248.067 153.309C247.468 154.091 247.156 155.009 247.13 156.063Z" fill="#FFA5C9"/>
</svg>
