<svg width="258" height="113" viewBox="0 0 258 113" fill="none" xmlns="http://www.w3.org/2000/svg">
<g id="logo">
<g id="Union">
<path d="M232.435 67.9484C231.792 66.4906 230.722 65.4691 229.228 64.8873C227.73 64.3054 226.247 64.3345 224.781 64.9713C223.313 65.6114 222.289 66.6748 221.704 68.1618C221.119 69.652 221.145 71.126 221.788 72.5838C222.428 74.0417 223.498 75.0631 224.996 75.645C226.491 76.2268 227.973 76.1977 229.442 75.5609C230.908 74.9241 231.935 73.8606 232.52 72.3705C233.105 70.8835 233.076 69.4095 232.435 67.9484Z" fill="white"/>
<path d="M257.61 3.20183C257.084 1.94439 256.073 1.02313 254.578 0.441288C253.08 -0.140559 251.711 -0.147023 250.466 0.421893C249.222 0.99081 248.335 1.95409 247.805 3.30527C247.697 3.5768 247.525 4.11662 247.288 4.91828C247.047 5.72316 246.778 6.6121 246.472 7.58507L246.29 8.16618C246.045 8.94764 245.801 9.72744 245.559 10.5072C245.253 11.4802 245.016 12.2851 244.844 12.9219L231.522 56.0658L233.56 56.861L253.213 16.177C253.518 15.5952 253.892 14.8452 254.334 13.9207C254.676 13.2045 255.021 12.4863 255.365 11.7676L255.657 11.1602C256.096 10.2389 256.505 9.40496 256.879 8.65179C257.252 7.90186 257.493 7.38789 257.6 7.11636C258.13 5.76519 258.133 4.45926 257.61 3.20183Z" fill="white"/>
<path fill-rule="evenodd" clip-rule="evenodd" d="M213.639 12.8415C218.189 12.8415 222.085 14.5165 225.338 17.8634C228.591 21.2134 230.215 25.2353 230.215 29.9291C230.215 35.1592 228.165 39.3862 224.054 42.6132C220.83 45.1556 217.284 46.4269 213.422 46.4269C208.825 46.4269 204.853 44.7771 201.502 41.4776C198.155 38.1749 196.477 34.2791 196.477 29.7809C196.477 25.0871 198.155 21.0904 201.502 17.7908C204.853 14.4913 208.898 12.8415 213.639 12.8415ZM213.602 45.3985C215.886 45.3985 217.394 44.0327 218.123 41.2946C218.801 38.7016 219.142 34.9384 219.142 30.0017C219.142 23.9389 218.729 19.7845 217.902 17.5353C216.977 15.0402 215.495 13.7942 213.457 13.7942C211.56 13.7942 210.081 15.1033 209.008 17.7183C207.942 20.3333 207.405 23.9389 207.405 28.5349C207.405 34.9384 208.039 39.4871 209.301 42.1715C210.321 44.3229 211.756 45.3985 213.602 45.3985Z" fill="white"/>
<path fill-rule="evenodd" clip-rule="evenodd" d="M80.4516 13.8292C85.2364 13.8292 89.2298 15.4381 92.435 18.6434C95.6435 21.8549 97.2461 25.8599 97.2461 30.6582C97.2461 35.5577 95.5942 39.5753 92.2872 42.7078C88.9769 45.8435 84.7536 47.4145 79.6141 47.4145C75.0296 47.4145 71.3187 45.5274 68.4681 41.7532C67.1447 39.9894 66.4846 38.5701 66.4846 37.4922C66.4846 37.1983 66.5831 37.0529 66.7867 37.0529C67.0396 37.0529 67.3713 37.5175 67.7785 38.4469C68.6455 40.3087 69.9032 41.8259 71.5584 43.005C73.2103 44.1777 74.9278 44.7688 76.711 44.7688C78.849 44.7688 80.6552 44.0607 82.1297 42.6446C84.6256 40.2549 85.8735 36.2026 85.8735 30.4938C85.8735 29.2737 85.7947 27.7849 85.6436 26.0274C83.7093 25.9326 82.1067 25.8851 80.8292 25.8851C72.5863 25.8188 67.8836 25.7208 66.7112 25.5849C66.813 24.3647 66.964 23.309 67.1676 22.427C67.9295 19.5885 69.5847 17.4074 72.1298 15.887C74.4221 14.5183 77.1938 13.8292 80.4516 13.8292ZM76.9409 16.829C76.3301 18.2862 76.051 20.8876 76.0969 24.6334H85.4893C85.0328 17.9701 83.2528 14.6384 80.1461 14.6384C78.6158 14.6384 77.5485 15.3686 76.9409 16.829Z" fill="white"/>
<path fill-rule="evenodd" clip-rule="evenodd" d="M159.456 49.8934C159.203 49.8934 158.872 50.3581 158.468 51.2907C157.598 53.1527 156.34 54.6701 154.685 55.8461C153.033 57.0221 151.316 57.6101 149.533 57.6101C147.395 57.6101 145.593 56.902 144.115 55.4857C141.622 53.0958 140.374 49.0462 140.374 43.3338C140.374 42.1167 140.45 40.6277 140.601 38.8701C142.535 38.7721 144.138 38.7246 145.415 38.7246C153.657 38.6583 158.36 38.5603 159.535 38.4275C159.433 37.2072 159.279 36.1514 159.076 35.2694C158.313 32.4274 156.658 30.2493 154.114 28.7287C151.825 27.3567 149.05 26.6707 145.796 26.6707C141.012 26.6707 137.016 28.2766 133.811 31.4853C130.602 34.694 129 38.6994 129 43.4982C129 48.4013 130.655 52.4193 133.962 55.5521C137.268 58.6881 141.494 60.2561 146.634 60.2561C151.214 60.2561 154.928 58.3719 157.778 54.5974C159.102 52.8334 159.762 51.414 159.762 50.336C159.762 50.042 159.66 49.8934 159.456 49.8934ZM146.098 27.48C147.628 27.48 148.695 28.2103 149.303 29.6676C149.914 31.1281 150.193 33.7298 150.147 37.4759H140.755C141.212 30.812 142.995 27.48 146.098 27.48Z" fill="white"/>
<path d="M119.836 79.8563H122.076C122.725 79.8563 123.046 80.0451 123.046 80.4258C123.046 80.8033 122.105 80.992 120.218 80.992C119.772 80.992 118.384 80.94 116.051 80.8391C114.859 80.7903 113.695 80.7643 112.555 80.7643C111.462 80.7643 109.428 80.8163 106.449 80.9172L104.216 80.992C103.123 81.0409 102.58 80.8651 102.58 80.4616C102.58 80.0613 103.152 79.8824 104.3 79.9344C106.041 79.9832 107.05 79.8075 107.323 79.404C107.596 79.0037 107.735 77.4905 107.735 74.8741V35.0651C107.735 33.3534 107.558 32.3348 107.204 32.0062C106.851 31.6807 105.816 31.518 104.1 31.518C102.837 31.518 102.208 31.3293 102.208 30.9551C102.208 30.5255 102.85 30.2847 104.139 30.2294C109.692 30.0309 114.226 29.1717 117.744 27.6585V73.0485C117.744 76.4784 117.831 78.483 118.004 79.0623C118.178 79.6415 118.788 79.9051 119.836 79.8563Z" fill="white"/>
<path d="M60.0907 61.8154C60.3921 61.4243 60.6676 61.2255 60.9203 61.2255C61.1213 61.2255 61.2217 61.3738 61.2217 61.6672C61.2217 62.5977 60.3176 63.8942 58.5093 65.5534C55.8973 67.9508 52.7572 69.1463 49.092 69.1463C44.5713 69.1463 40.7182 67.5723 37.5294 64.4178C34.3406 61.2634 32.7462 57.4402 32.7462 52.942C32.7462 48.0526 34.4281 43.936 37.7919 40.586C41.1557 37.2392 45.3004 35.561 50.223 35.561C53.3858 35.561 56.0626 36.296 58.2468 37.7628C60.431 39.2296 61.5231 41.015 61.5231 43.1159C61.5231 44.2893 61.1699 45.242 60.4699 45.9738C59.7634 46.7088 58.8593 47.0747 57.7542 47.0747C55.0937 47.0747 53.7618 45.9265 53.7618 43.6269C53.7618 43.0433 53.927 42.3431 54.2543 41.5387C54.5784 40.7311 54.7437 40.157 54.7437 39.8132C54.7437 38.8858 54.3775 38.0909 53.6516 37.4316C52.9224 36.7723 52.0313 36.4442 50.9748 36.4442C46.4055 36.4442 44.1208 41.4062 44.1208 51.3301C44.1208 56.9986 45.1254 61.0584 47.1346 63.4999C48.6902 65.3579 50.5989 66.2853 52.8609 66.2853C55.22 66.2853 57.6311 64.7964 60.0907 61.8154Z" fill="white"/>
<path d="M194.851 43.072C193.763 42.0201 192.361 41.4877 190.644 41.4877C188.826 41.4877 187.35 41.9877 186.213 42.9811C185.079 43.9778 184.03 45.6952 183.072 48.1301V44.9615C183.072 43.6531 182.945 42.4974 182.691 41.4877C178.197 43.1012 174.007 43.9031 170.12 43.9031H167.317C166.91 43.9031 166.708 44.046 166.708 44.3284C166.708 44.6109 166.799 44.7764 166.975 44.8219C167.151 44.8706 167.897 44.942 169.21 45.0362C170.875 45.1888 171.947 45.5881 172.427 46.2439C172.908 46.8932 173.147 48.0749 173.147 49.7794L173.225 70.1026C173.225 71.9629 173.01 73.0764 172.579 73.453C172.149 73.8296 170.901 74.0439 168.832 74.0926C168.122 74.0926 167.77 74.2582 167.77 74.5828C167.77 74.9107 168.047 75.0731 168.604 75.0731H188.448C188.904 75.0731 189.129 74.8718 189.129 74.4725C189.129 74.1673 188.852 73.992 188.298 73.94C187.187 73.94 186.226 73.9173 185.418 73.8654C184.056 73.7647 183.375 73.0407 183.375 71.6837V59.5644C183.375 53.6914 183.622 50.0034 184.121 48.497C185.017 45.8381 186.314 44.507 188.008 44.507C188.657 44.507 188.979 44.7342 188.979 45.1888C188.979 45.3381 188.904 45.5167 188.751 45.7147C188.093 46.5718 187.767 47.4256 187.767 48.2795C187.767 50.7988 189.129 52.0552 191.857 52.0552C193.222 52.0552 194.333 51.5909 195.19 50.6592C196.047 49.7307 196.477 48.5327 196.477 47.0717C196.477 45.4647 195.933 44.1304 194.851 43.072Z" fill="white"/>
<path d="M20.8971 24.2429C24.1262 25.3706 26.5775 26.8493 28.2511 28.6854C29.9247 30.5216 30.7615 32.8583 30.7615 35.7019C30.7615 37.6551 30.3284 39.4198 29.462 40.9862C28.5957 42.5559 27.457 43.8884 26.0525 44.9836C24.648 46.0788 23.017 46.9238 21.1662 47.5152C19.3121 48.1067 17.3989 48.4025 15.4267 48.4025C14.3504 48.4025 13.1854 48.2822 11.9285 48.0482C10.6717 47.811 9.4608 47.5282 8.29584 47.2032C7.13088 46.8783 6.06764 46.5988 5.1127 46.3615C4.15448 46.1243 3.40956 46.004 2.87138 46.004C2.39227 46.004 2.04771 46.095 1.83769 46.2705C1.62766 46.4493 1.43405 46.7743 1.25685 47.2487H0V34.3695H1.25685C1.97223 36.0269 2.70402 37.6259 3.45222 39.1663C4.20042 40.7067 5.07989 42.0684 6.09718 43.2514C7.11447 44.4376 8.34178 45.3996 9.77583 46.1373C11.2099 46.8783 12.9721 47.2487 15.0657 47.2487C15.6039 47.2487 16.3226 47.2195 17.2185 47.161C18.1176 47.1025 18.9971 46.849 19.8667 46.4038C20.733 45.9618 21.4812 45.2793 22.108 44.3629C22.7348 43.4431 23.0498 42.1269 23.0498 40.4078C23.0498 39.8748 22.9743 39.3288 22.8267 38.7666C22.6757 38.2043 22.3607 37.6259 21.8849 37.0344C21.4058 36.4429 20.7035 35.8644 19.7748 35.3022C18.8494 34.74 17.5794 34.1615 15.9649 33.57L8.69947 30.9051C7.86267 30.6094 6.96351 30.2096 6.00857 29.7059C5.05035 29.2054 4.17089 28.5392 3.36362 27.7072C2.55635 26.8785 1.88363 25.8873 1.34545 24.7336C0.807269 23.5766 0.538179 22.2019 0.538179 20.603C0.538179 18.8871 0.895872 17.2589 1.61454 15.7184C2.3332 14.178 3.33409 12.8325 4.62047 11.6756C5.90356 10.5219 7.45903 9.60541 9.28359 8.92294C11.1049 8.24371 13.0935 7.90248 15.2462 7.90248C16.3817 7.90248 17.4449 8.01947 18.4294 8.25671C19.4171 8.49395 20.313 8.74419 21.1203 9.01068C21.9275 9.27718 22.6462 9.53066 23.273 9.76791C23.8998 10.0051 24.3953 10.1221 24.753 10.1221C25.4093 10.1221 25.8293 10.0051 26.0098 9.76791C26.187 9.53066 26.338 9.26418 26.4561 8.96844H27.713V19.8035H26.548C25.9475 18.3833 25.3371 17.0216 24.707 15.7184C24.0802 14.4152 23.332 13.2745 22.4657 12.2996C21.5994 11.3213 20.5394 10.5511 19.2826 9.9889C18.0257 9.42667 16.4703 9.14393 14.6194 9.14393C12.6472 9.14393 10.8358 9.66391 9.19171 10.7006C7.54764 11.7373 6.72724 13.2615 6.72724 15.2732C6.72724 15.6892 6.78631 16.1604 6.90445 16.6934C7.02587 17.2264 7.29495 17.7756 7.71172 18.3378C8.13176 18.9001 8.78807 19.4623 9.68723 20.0245C10.5831 20.59 11.7776 21.136 13.274 21.669L20.8971 24.2429Z" fill="white"/>
</g>
<path id="arts and literary magazine" d="M49.4629 98.2227C49.4629 98.5872 49.6178 98.9017 49.9277 99.166C50.2376 99.4212 50.666 99.5488 51.2129 99.5488C51.8965 99.5488 52.4798 99.3301 52.9629 98.8926C53.4551 98.446 53.7012 97.8809 53.7012 97.1973V96.0625C53.291 96.1901 52.6074 96.3268 51.6504 96.4727C50.8848 96.6003 50.3288 96.8053 49.9824 97.0879C49.6361 97.3704 49.4629 97.7487 49.4629 98.2227ZM48.6152 98.2773C48.6152 97.6211 48.8568 97.0924 49.3398 96.6914C49.832 96.2812 50.6068 95.9941 51.6641 95.8301C52.7214 95.6569 53.4004 95.5111 53.7012 95.3926V94.9824C53.7012 94.4811 53.5234 94.071 53.168 93.752C52.8216 93.4238 52.3294 93.2598 51.6914 93.2598C51.2539 93.2598 50.8301 93.3646 50.4199 93.5742C50.0189 93.7747 49.6816 94.0482 49.4082 94.3945L48.8613 93.957C49.1895 93.5469 49.5996 93.2142 50.0918 92.959C50.584 92.7038 51.1126 92.5762 51.6777 92.5762C52.6712 92.5762 53.3913 92.8223 53.8379 93.3145C54.2936 93.8066 54.5215 94.4674 54.5215 95.2969V100H53.7148V98.7012C53.5599 99.1113 53.2409 99.4714 52.7578 99.7812C52.2839 100.091 51.7324 100.246 51.1035 100.246C50.3288 100.246 49.7181 100.064 49.2715 99.6992C48.834 99.3255 48.6152 98.8516 48.6152 98.2773ZM56.7637 100V92.8223H57.5703V93.957C57.707 93.6107 57.9486 93.2962 58.2949 93.0137C58.6413 92.722 59.0879 92.5762 59.6348 92.5762C60.054 92.5762 60.4004 92.64 60.6738 92.7676V93.5332C60.3184 93.3965 59.972 93.3281 59.6348 93.3281C59.0059 93.3281 58.5091 93.5651 58.1445 94.0391C57.7891 94.513 57.6113 95.1283 57.6113 95.8848V100H56.7637ZM61.1797 93.5195V92.8223H62.4922V90.457H63.3398V92.8223H65.2539V93.5195H63.3398V97.9629C63.3398 98.4368 63.431 98.7786 63.6133 98.9883C63.7956 99.1979 64.0918 99.2982 64.502 99.2891L65.2539 99.2754V100H64.3926C63.7819 100.009 63.3125 99.8542 62.9844 99.5352C62.6562 99.2161 62.4922 98.7194 62.4922 98.0449V93.5195H61.1797ZM66.293 98.6602L66.9355 98.291C67.4733 99.1296 68.207 99.5488 69.1367 99.5488C69.7109 99.5488 70.1758 99.4349 70.5312 99.207C70.8867 98.9792 71.0645 98.6647 71.0645 98.2637C71.0645 98.0814 71.0189 97.9219 70.9277 97.7852C70.8457 97.6393 70.7546 97.5208 70.6543 97.4297C70.554 97.3294 70.3763 97.2292 70.1211 97.1289C69.875 97.0195 69.6745 96.9421 69.5195 96.8965C69.3737 96.8418 69.1185 96.7598 68.7539 96.6504C68.4349 96.5501 68.1615 96.4544 67.9336 96.3633C67.7148 96.263 67.4824 96.1309 67.2363 95.9668C66.9993 95.8027 66.8171 95.6022 66.6895 95.3652C66.5618 95.1283 66.498 94.8548 66.498 94.5449C66.498 93.9525 66.735 93.4785 67.209 93.123C67.6921 92.7585 68.3346 92.5762 69.1367 92.5762C69.7109 92.5762 70.235 92.7266 70.709 93.0273C71.1829 93.319 71.5247 93.6699 71.7344 94.0801L71.1602 94.4492C70.9688 94.1211 70.6908 93.8431 70.3262 93.6152C69.9707 93.3874 69.5742 93.2734 69.1367 93.2734C68.5625 93.2734 68.1159 93.3919 67.7969 93.6289C67.487 93.8568 67.332 94.1667 67.332 94.5586C67.332 94.8503 67.4414 95.1055 67.6602 95.3242C67.8789 95.543 68.1113 95.707 68.3574 95.8164C68.6126 95.9167 68.9408 96.026 69.3418 96.1445C69.6973 96.2448 69.998 96.3451 70.2441 96.4453C70.4902 96.5365 70.7546 96.6686 71.0371 96.8418C71.3197 97.0059 71.5339 97.2109 71.6797 97.457C71.8346 97.694 71.9121 97.9629 71.9121 98.2637C71.9121 98.8288 71.666 99.3027 71.1738 99.6855C70.6908 100.059 70.0117 100.246 69.1367 100.246C68.5169 100.246 67.9609 100.109 67.4688 99.8359C66.9766 99.5534 66.5846 99.1615 66.293 98.6602ZM77.3262 98.2227C77.3262 98.5872 77.4811 98.9017 77.791 99.166C78.1009 99.4212 78.5293 99.5488 79.0762 99.5488C79.7598 99.5488 80.3431 99.3301 80.8262 98.8926C81.3184 98.446 81.5645 97.8809 81.5645 97.1973V96.0625C81.1543 96.1901 80.4707 96.3268 79.5137 96.4727C78.748 96.6003 78.1921 96.8053 77.8457 97.0879C77.4993 97.3704 77.3262 97.7487 77.3262 98.2227ZM76.4785 98.2773C76.4785 97.6211 76.7201 97.0924 77.2031 96.6914C77.6953 96.2812 78.4701 95.9941 79.5273 95.8301C80.5846 95.6569 81.2637 95.5111 81.5645 95.3926V94.9824C81.5645 94.4811 81.3867 94.071 81.0312 93.752C80.6849 93.4238 80.1927 93.2598 79.5547 93.2598C79.1172 93.2598 78.6934 93.3646 78.2832 93.5742C77.8822 93.7747 77.5449 94.0482 77.2715 94.3945L76.7246 93.957C77.0527 93.5469 77.4629 93.2142 77.9551 92.959C78.4473 92.7038 78.9759 92.5762 79.541 92.5762C80.5345 92.5762 81.2546 92.8223 81.7012 93.3145C82.1569 93.8066 82.3848 94.4674 82.3848 95.2969V100H81.5781V98.7012C81.4232 99.1113 81.1042 99.4714 80.6211 99.7812C80.1471 100.091 79.5957 100.246 78.9668 100.246C78.1921 100.246 77.5814 100.064 77.1348 99.6992C76.6973 99.3255 76.4785 98.8516 76.4785 98.2773ZM84.627 100V92.8223H85.4473V94.1758H85.4609C85.5612 93.8112 85.8301 93.4557 86.2676 93.1094C86.7142 92.7539 87.2474 92.5762 87.8672 92.5762C88.5143 92.5762 89.0566 92.7858 89.4941 93.2051C89.9316 93.6152 90.1504 94.3307 90.1504 95.3516V100H89.3027V95.502C89.3027 94.0163 88.7604 93.2734 87.6758 93.2734C87.0924 93.2734 86.5775 93.5104 86.1309 93.9844C85.6934 94.4583 85.4746 95.0189 85.4746 95.666V100H84.627ZM91.8867 96.3906C91.8867 95.2057 92.1647 94.276 92.7207 93.6016C93.2858 92.918 94.0059 92.5762 94.8809 92.5762C95.4368 92.5762 95.9154 92.7448 96.3164 93.082C96.7266 93.4193 97.0137 93.8158 97.1777 94.2715V89.5547H97.998V100H97.2051V98.5645C97.0228 99.0475 96.7266 99.4486 96.3164 99.7676C95.9154 100.087 95.4368 100.246 94.8809 100.246C94.0879 100.246 93.3906 99.9225 92.7891 99.2754C92.1875 98.6283 91.8867 97.6667 91.8867 96.3906ZM92.7344 96.3906C92.7344 97.3477 92.9395 98.1133 93.3496 98.6875C93.7689 99.2617 94.3158 99.5488 94.9902 99.5488C95.61 99.5488 96.1341 99.2663 96.5625 98.7012C96.9909 98.1361 97.2051 97.3659 97.2051 96.3906C97.2051 95.4336 96.9863 94.6771 96.5488 94.1211C96.1113 93.556 95.5872 93.2734 94.9766 93.2734C94.3112 93.2734 93.7689 93.556 93.3496 94.1211C92.9395 94.6862 92.7344 95.4427 92.7344 96.3906ZM103.959 100V89.5547H104.779V100H103.959ZM107.363 91.0586V89.8008H108.553V91.0586H107.363ZM107.555 100V92.8223H108.389V100H107.555ZM110.139 93.5195V92.8223H111.451V90.457H112.299V92.8223H114.213V93.5195H112.299V97.9629C112.299 98.4368 112.39 98.7786 112.572 98.9883C112.755 99.1979 113.051 99.2982 113.461 99.2891L114.213 99.2754V100H113.352C112.741 100.009 112.271 99.8542 111.943 99.5352C111.615 99.2161 111.451 98.7194 111.451 98.0449V93.5195H110.139ZM115.361 96.3633C115.361 95.2422 115.658 94.3307 116.25 93.6289C116.842 92.9271 117.617 92.5762 118.574 92.5762C119.54 92.5762 120.301 92.9225 120.857 93.6152C121.413 94.2988 121.691 95.1556 121.691 96.1855C121.691 96.2949 121.682 96.459 121.664 96.6777H116.209C116.209 97.4616 116.419 98.1361 116.838 98.7012C117.266 99.2663 117.859 99.5488 118.615 99.5488C119.098 99.5488 119.531 99.4303 119.914 99.1934C120.306 98.9564 120.602 98.6465 120.803 98.2637L121.514 98.4961C121.277 99.0065 120.912 99.4258 120.42 99.7539C119.928 100.082 119.326 100.246 118.615 100.246C117.631 100.246 116.842 99.8906 116.25 99.1797C115.658 98.4596 115.361 97.5208 115.361 96.3633ZM116.223 96.0352H120.844C120.844 95.2695 120.639 94.6178 120.229 94.0801C119.818 93.5423 119.267 93.2734 118.574 93.2734C117.863 93.2734 117.298 93.5514 116.879 94.1074C116.46 94.6543 116.241 95.2969 116.223 96.0352ZM123.469 100V92.8223H124.275V93.957C124.412 93.6107 124.654 93.2962 125 93.0137C125.346 92.722 125.793 92.5762 126.34 92.5762C126.759 92.5762 127.105 92.64 127.379 92.7676V93.5332C127.023 93.3965 126.677 93.3281 126.34 93.3281C125.711 93.3281 125.214 93.5651 124.85 94.0391C124.494 94.513 124.316 95.1283 124.316 95.8848V100H123.469ZM128.732 98.2227C128.732 98.5872 128.887 98.9017 129.197 99.166C129.507 99.4212 129.936 99.5488 130.482 99.5488C131.166 99.5488 131.749 99.3301 132.232 98.8926C132.725 98.446 132.971 97.8809 132.971 97.1973V96.0625C132.561 96.1901 131.877 96.3268 130.92 96.4727C130.154 96.6003 129.598 96.8053 129.252 97.0879C128.906 97.3704 128.732 97.7487 128.732 98.2227ZM127.885 98.2773C127.885 97.6211 128.126 97.0924 128.609 96.6914C129.102 96.2812 129.876 95.9941 130.934 95.8301C131.991 95.6569 132.67 95.5111 132.971 95.3926V94.9824C132.971 94.4811 132.793 94.071 132.438 93.752C132.091 93.4238 131.599 93.2598 130.961 93.2598C130.523 93.2598 130.1 93.3646 129.689 93.5742C129.288 93.7747 128.951 94.0482 128.678 94.3945L128.131 93.957C128.459 93.5469 128.869 93.2142 129.361 92.959C129.854 92.7038 130.382 92.5762 130.947 92.5762C131.941 92.5762 132.661 92.8223 133.107 93.3145C133.563 93.8066 133.791 94.4674 133.791 95.2969V100H132.984V98.7012C132.829 99.1113 132.51 99.4714 132.027 99.7812C131.553 100.091 131.002 100.246 130.373 100.246C129.598 100.246 128.988 100.064 128.541 99.6992C128.104 99.3255 127.885 98.8516 127.885 98.2773ZM136.033 100V92.8223H136.84V93.957C136.977 93.6107 137.218 93.2962 137.564 93.0137C137.911 92.722 138.357 92.5762 138.904 92.5762C139.324 92.5762 139.67 92.64 139.943 92.7676V93.5332C139.588 93.3965 139.242 93.3281 138.904 93.3281C138.275 93.3281 137.779 93.5651 137.414 94.0391C137.059 94.513 136.881 95.1283 136.881 95.8848V100H136.033ZM140.422 92.8223H141.393L143.006 97.3477C143.215 97.9401 143.421 98.5417 143.621 99.1523H143.662C143.735 98.9245 143.84 98.6055 143.977 98.1953C144.122 97.7852 144.223 97.498 144.277 97.334L145.822 92.8223H146.779L143.662 101.299C143.407 102.001 143.111 102.493 142.773 102.775C142.436 103.067 142.035 103.213 141.57 103.213H141.188V102.516H141.434C141.762 102.516 142.049 102.406 142.295 102.188C142.541 101.978 142.755 101.604 142.938 101.066L143.225 100.191L140.422 92.8223ZM151.482 100V92.8223H152.303V93.998H152.316C152.444 93.6426 152.69 93.319 153.055 93.0273C153.419 92.7266 153.88 92.5762 154.436 92.5762C155.393 92.5762 156.021 93.1458 156.322 94.2852C156.359 94.1667 156.423 94.0254 156.514 93.8613C156.614 93.6973 156.755 93.515 156.938 93.3145C157.12 93.1048 157.366 92.9316 157.676 92.7949C157.995 92.6491 158.341 92.5762 158.715 92.5762C159.435 92.5762 159.954 92.8132 160.273 93.2871C160.592 93.7611 160.752 94.4492 160.752 95.3516V100H159.918V95.4336C159.918 94.7227 159.818 94.1849 159.617 93.8203C159.426 93.4557 159.057 93.2734 158.51 93.2734C157.963 93.2734 157.498 93.5013 157.115 93.957C156.732 94.4128 156.541 94.9961 156.541 95.707V100H155.707V95.4336C155.707 93.9935 155.229 93.2734 154.271 93.2734C153.688 93.2734 153.219 93.4967 152.863 93.9434C152.508 94.3809 152.33 94.946 152.33 95.6387V100H151.482ZM163.295 98.2227C163.295 98.5872 163.45 98.9017 163.76 99.166C164.07 99.4212 164.498 99.5488 165.045 99.5488C165.729 99.5488 166.312 99.3301 166.795 98.8926C167.287 98.446 167.533 97.8809 167.533 97.1973V96.0625C167.123 96.1901 166.439 96.3268 165.482 96.4727C164.717 96.6003 164.161 96.8053 163.814 97.0879C163.468 97.3704 163.295 97.7487 163.295 98.2227ZM162.447 98.2773C162.447 97.6211 162.689 97.0924 163.172 96.6914C163.664 96.2812 164.439 95.9941 165.496 95.8301C166.553 95.6569 167.232 95.5111 167.533 95.3926V94.9824C167.533 94.4811 167.355 94.071 167 93.752C166.654 93.4238 166.161 93.2598 165.523 93.2598C165.086 93.2598 164.662 93.3646 164.252 93.5742C163.851 93.7747 163.514 94.0482 163.24 94.3945L162.693 93.957C163.021 93.5469 163.432 93.2142 163.924 92.959C164.416 92.7038 164.945 92.5762 165.51 92.5762C166.503 92.5762 167.223 92.8223 167.67 93.3145C168.126 93.8066 168.354 94.4674 168.354 95.2969V100H167.547V98.7012C167.392 99.1113 167.073 99.4714 166.59 99.7812C166.116 100.091 165.564 100.246 164.936 100.246C164.161 100.246 163.55 100.064 163.104 99.6992C162.666 99.3255 162.447 98.8516 162.447 98.2773ZM170.938 96.2812C170.938 97.1745 171.138 97.8991 171.539 98.4551C171.94 99.002 172.464 99.2754 173.111 99.2754C173.777 99.2754 174.301 99.0111 174.684 98.4824C175.066 97.9447 175.258 97.2018 175.258 96.2539C175.258 95.3424 175.062 94.6178 174.67 94.0801C174.278 93.5423 173.768 93.2734 173.139 93.2734C172.464 93.2734 171.926 93.556 171.525 94.1211C171.133 94.6862 170.938 95.4062 170.938 96.2812ZM170.09 96.2812C170.09 95.1693 170.359 94.276 170.896 93.6016C171.434 92.918 172.145 92.5762 173.029 92.5762C173.613 92.5762 174.087 92.7357 174.451 93.0547C174.825 93.3737 175.094 93.7428 175.258 94.1621V92.8223H176.078V99.2617C176.078 100.611 175.841 101.613 175.367 102.27C174.902 102.935 174.15 103.268 173.111 103.268C171.99 103.268 171.124 102.848 170.514 102.01L171.115 101.613C171.689 102.26 172.359 102.584 173.125 102.584C173.836 102.584 174.369 102.32 174.725 101.791C175.08 101.262 175.258 100.533 175.258 99.6035V98.4414C175.076 98.888 174.798 99.2572 174.424 99.5488C174.059 99.8405 173.604 99.9863 173.057 99.9863C172.154 99.9863 171.434 99.64 170.896 98.9473C170.359 98.2546 170.09 97.3659 170.09 96.2812ZM178.744 98.2227C178.744 98.5872 178.899 98.9017 179.209 99.166C179.519 99.4212 179.947 99.5488 180.494 99.5488C181.178 99.5488 181.761 99.3301 182.244 98.8926C182.736 98.446 182.982 97.8809 182.982 97.1973V96.0625C182.572 96.1901 181.889 96.3268 180.932 96.4727C180.166 96.6003 179.61 96.8053 179.264 97.0879C178.917 97.3704 178.744 97.7487 178.744 98.2227ZM177.896 98.2773C177.896 97.6211 178.138 97.0924 178.621 96.6914C179.113 96.2812 179.888 95.9941 180.945 95.8301C182.003 95.6569 182.682 95.5111 182.982 95.3926V94.9824C182.982 94.4811 182.805 94.071 182.449 93.752C182.103 93.4238 181.611 93.2598 180.973 93.2598C180.535 93.2598 180.111 93.3646 179.701 93.5742C179.3 93.7747 178.963 94.0482 178.689 94.3945L178.143 93.957C178.471 93.5469 178.881 93.2142 179.373 92.959C179.865 92.7038 180.394 92.5762 180.959 92.5762C181.952 92.5762 182.673 92.8223 183.119 93.3145C183.575 93.8066 183.803 94.4674 183.803 95.2969V100H182.996V98.7012C182.841 99.1113 182.522 99.4714 182.039 99.7812C181.565 100.091 181.014 100.246 180.385 100.246C179.61 100.246 178.999 100.064 178.553 99.6992C178.115 99.3255 177.896 98.8516 177.896 98.2773ZM185.375 100V99.4258L189.709 93.5195H185.744V92.8223H190.789V93.3691L186.428 99.2891H190.912V100H185.375ZM192.662 91.0586V89.8008H193.852V91.0586H192.662ZM192.854 100V92.8223H193.688V100H192.854ZM196.285 100V92.8223H197.105V94.1758H197.119C197.219 93.8112 197.488 93.4557 197.926 93.1094C198.372 92.7539 198.906 92.5762 199.525 92.5762C200.173 92.5762 200.715 92.7858 201.152 93.2051C201.59 93.6152 201.809 94.3307 201.809 95.3516V100H200.961V95.502C200.961 94.0163 200.419 93.2734 199.334 93.2734C198.751 93.2734 198.236 93.5104 197.789 93.9844C197.352 94.4583 197.133 95.0189 197.133 95.666V100H196.285ZM203.545 96.3633C203.545 95.2422 203.841 94.3307 204.434 93.6289C205.026 92.9271 205.801 92.5762 206.758 92.5762C207.724 92.5762 208.485 92.9225 209.041 93.6152C209.597 94.2988 209.875 95.1556 209.875 96.1855C209.875 96.2949 209.866 96.459 209.848 96.6777H204.393C204.393 97.4616 204.602 98.1361 205.021 98.7012C205.45 99.2663 206.042 99.5488 206.799 99.5488C207.282 99.5488 207.715 99.4303 208.098 99.1934C208.49 98.9564 208.786 98.6465 208.986 98.2637L209.697 98.4961C209.46 99.0065 209.096 99.4258 208.604 99.7539C208.111 100.082 207.51 100.246 206.799 100.246C205.814 100.246 205.026 99.8906 204.434 99.1797C203.841 98.4596 203.545 97.5208 203.545 96.3633ZM204.406 96.0352H209.027C209.027 95.2695 208.822 94.6178 208.412 94.0801C208.002 93.5423 207.451 93.2734 206.758 93.2734C206.047 93.2734 205.482 93.5514 205.062 94.1074C204.643 94.6543 204.424 95.2969 204.406 96.0352Z" fill="white"/>
</g>
</svg>
